<svg xmlns="http://www.w3.org/2000/svg" xmlns:xlink="http://www.w3.org/1999/xlink" width="873.919" height="524.074" viewBox="0 0 873.919 524.074">
  <defs>
    <linearGradient id="linear-gradient" x1="0.5" y1="1" x2="0.5" gradientUnits="objectBoundingBox">
      <stop offset="0" stop-color="gray" stop-opacity="0.251"/>
      <stop offset="0.54" stop-color="gray" stop-opacity="0.122"/>
      <stop offset="1" stop-color="gray" stop-opacity="0.102"/>
    </linearGradient>
    <linearGradient id="linear-gradient-3" x1="0.5" y1="1" x2="0.5" y2="0" xlink:href="#linear-gradient"/>
    <linearGradient id="linear-gradient-4" x1="0.5" y1="1" x2="0.5" y2="0" xlink:href="#linear-gradient"/>
    <linearGradient id="linear-gradient-6" x1="0.5" y1="1" x2="0.5" y2="0" xlink:href="#linear-gradient"/>
    <linearGradient id="linear-gradient-7" x1="0.5" y1="1" x2="0.5" y2="0" xlink:href="#linear-gradient"/>
  </defs>
  <g id="undraw_taking_notes_tjaf" transform="translate(478.178 38.73)">
    <ellipse id="Ellipse_1" data-name="Ellipse 1" cx="53.672" cy="8.994" rx="53.672" ry="8.994" transform="translate(134.617 399.036)" fill="#6c63ff" opacity="0.1"/>
    <path id="Path_3" data-name="Path 3" d="M607.105,97.376c-36.939,25.3-84.864,23.67-126.815,10.506S399.7,71.274,358.791,54.615A401.746,401.746,0,0,0,252.049,27.4c-52.135-5.839-110.37,1.274-146.7,42.182C64.889,115.132,68,197.294,111.759,239.135c22.258,21.271,51.4,31.709,76.823,48.32s48.937,44.185,46.777,76.242c-2,29.679-25.312,52.463-49.41,66.771-18.638,11.038-41.588,23.1-43.875,45.97-2.177,22.13,17.12,39.47,35.555,49.336,60.108,32.173,134.155,31.859,194.061-.811,21.372-11.658,41.006-27.158,63.416-36.247,58.826-23.847,123.659.157,185.945,8.939a379.655,379.655,0,0,0,158.16-11.263c30.847-8.912,61.813-22.539,83.489-47.925,15.626-18.308,25.363-41.48,34.5-64.359q14.63-36.6,28.114-73.714c5.392-14.853,10.707-29.979,12.1-45.881,2.531-28.8-8.117-57.232-22.6-81.57C880.445,115.193,822.5,74.619,759.789,64.311S630.62,74.135,581.953,118.184" transform="translate(-555.049 -64.342)" fill="#6c63ff" opacity="0.1"/>
    <g id="Group_2" data-name="Group 2" transform="translate(39.955 88.591)" opacity="0.35">
      <path id="Path_4" data-name="Path 4" d="M496.359,226.338V223h-52.6c-2.419,0-.944,3.358-.944,3.358H414.24v74.857H539.713V226.338Z" transform="translate(-414.24 -223)" fill="#6c63ff" opacity="0.2"/>
    </g>
    <path id="Path_5" data-name="Path 5" d="M910.28,273.755s15.815-28.016,39.649-36.086a48.729,48.729,0,0,0,24.688-18.47,81.681,81.681,0,0,0,7.282-13.1" transform="translate(-621.366 -125.991)" fill="none" stroke="#535461" stroke-miterlimit="10" stroke-width="2"/>
    <path id="Path_6" data-name="Path 6" d="M1067.548,184.109c-2.71,2.635-15.348,5.36-15.348,5.36s3.1-12.547,5.812-15.187a6.847,6.847,0,0,1,9.536,9.827Z" transform="translate(-692.058 -109.179)" fill="#6c63ff"/>
    <path id="Path_7" data-name="Path 7" d="M1052.86,227.539c-3.709.738-15.8-3.844-15.8-3.844s9.425-8.848,13.134-9.586a6.846,6.846,0,0,1,2.665,13.431Z" transform="translate(-684.517 -129.915)" fill="#6c63ff"/>
    <path id="Path_8" data-name="Path 8" d="M1005.064,276.852c-3.573-1.235-11.694-11.293-11.694-11.293s12.6-2.886,16.176-1.646a6.846,6.846,0,0,1-4.482,12.939Z" transform="translate(-662.754 -154.634)" fill="#6c63ff"/>
    <path id="Path_9" data-name="Path 9" d="M955.746,304.764c-3.729-.607-13.436-9.139-13.436-9.139s11.935-4.969,15.669-4.356a6.847,6.847,0,1,1-2.233,13.511Z" transform="translate(-637.321 -168.388)" fill="#6c63ff"/>
    <path id="Path_10" data-name="Path 10" d="M1016.058,206.852c0,3.784,6.841,14.751,6.841,14.751s6.856-10.961,6.856-14.746a6.851,6.851,0,1,0-13.7,0Z" transform="translate(-674.054 -122.864)" fill="#6c63ff"/>
    <path id="Path_11" data-name="Path 11" d="M960.432,238.4c1.129,3.609,10.941,12.045,10.941,12.045s3.257-12.512,2.128-16.121a6.846,6.846,0,1,0-13.049,4.09Z" transform="translate(-646.147 -137.502)" fill="#6c63ff"/>
    <path id="Path_12" data-name="Path 12" d="M911.521,279.511c.5,3.749,8.753,13.707,8.753,13.707s5.325-11.779,4.823-15.529a6.851,6.851,0,1,0-13.551,1.822Z" transform="translate(-621.93 -158.473)" fill="#6c63ff"/>
    <path id="Path_13" data-name="Path 13" d="M1067.548,184.109c-2.71,2.635-15.348,5.36-15.348,5.36s3.1-12.547,5.812-15.187a6.847,6.847,0,0,1,9.536,9.827Z" transform="translate(-692.058 -109.179)" opacity="0.25"/>
    <path id="Path_14" data-name="Path 14" d="M1052.86,227.539c-3.709.738-15.8-3.844-15.8-3.844s9.425-8.848,13.134-9.586a6.846,6.846,0,0,1,2.665,13.431Z" transform="translate(-684.517 -129.915)" opacity="0.25"/>
    <path id="Path_15" data-name="Path 15" d="M1005.064,276.852c-3.573-1.235-11.694-11.293-11.694-11.293s12.6-2.886,16.176-1.646a6.846,6.846,0,0,1-4.482,12.939Z" transform="translate(-662.754 -154.634)" opacity="0.25"/>
    <path id="Path_16" data-name="Path 16" d="M955.746,304.764c-3.729-.607-13.436-9.139-13.436-9.139s11.935-4.969,15.669-4.356a6.847,6.847,0,1,1-2.233,13.511Z" transform="translate(-637.321 -168.388)" opacity="0.25"/>
    <path id="Path_17" data-name="Path 17" d="M1016.058,206.852c0,3.784,6.841,14.751,6.841,14.751s6.856-10.961,6.856-14.746a6.851,6.851,0,1,0-13.7,0Z" transform="translate(-674.054 -122.864)" opacity="0.25"/>
    <path id="Path_18" data-name="Path 18" d="M960.432,238.4c1.129,3.609,10.941,12.045,10.941,12.045s3.257-12.512,2.128-16.121a6.846,6.846,0,1,0-13.049,4.09Z" transform="translate(-646.147 -137.502)" opacity="0.25"/>
    <path id="Path_19" data-name="Path 19" d="M911.521,279.511c.5,3.749,8.753,13.707,8.753,13.707s5.325-11.779,4.823-15.529a6.851,6.851,0,1,0-13.551,1.822Z" transform="translate(-621.93 -158.473)" opacity="0.25"/>
    <path id="Path_20" data-name="Path 20" d="M912.1,249.607s3.1-32.021,21.581-49.05a48.683,48.683,0,0,0,15.082-26.886,81.631,81.631,0,0,0,1.35-14.931" transform="translate(-622.273 -102.401)" fill="none" stroke="#535461" stroke-miterlimit="10" stroke-width="2"/>
    <path id="Path_21" data-name="Path 21" d="M997.929,127.872c-1.415,3.513-11.865,11.122-11.865,11.122s-2.253-12.738-.838-16.251a6.848,6.848,0,0,1,12.7,5.119Z" transform="translate(-658.465 -82.333)" fill="#6c63ff"/>
    <path id="Path_22" data-name="Path 22" d="M1000.43,172.009c-3.092,2.178-16,2.886-16,2.886s5.019-11.91,8.121-14.083a6.846,6.846,0,0,1,7.88,11.2Z" transform="translate(-658.301 -102.811)" fill="#6c63ff"/>
    <path id="Path_23" data-name="Path 23" d="M973.578,236.582C969.808,236.9,958.31,231,958.31,231s10.354-7.744,14.123-8.06a6.847,6.847,0,1,1,1.144,13.646Z" transform="translate(-645.29 -134.365)" fill="#6c63ff"/>
    <path id="Path_24" data-name="Path 24" d="M940.785,281.846c-3.659.954-16-2.926-16-2.926s8.9-9.38,12.547-10.329a6.847,6.847,0,1,1,3.438,13.255Z" transform="translate(-628.594 -157.008)" fill="#6c63ff"/>
    <path id="Path_25" data-name="Path 25" d="M956.707,171.191c1.531,3.458,12.231,10.71,12.231,10.71s1.822-12.8.291-16.256a6.854,6.854,0,0,0-12.547,5.521Z" transform="translate(-644.19 -103.801)" fill="#6c63ff"/>
    <path id="Path_26" data-name="Path 26" d="M918.781,222.718c2.509,2.841,14.876,6.565,14.876,6.565s-2.093-12.758-4.587-15.6a6.846,6.846,0,1,0-10.289,9.034Z" transform="translate(-624.753 -128.606)" fill="#6c63ff"/>
    <path id="Path_27" data-name="Path 27" d="M890.738,280.2c2.008,3.222,13.551,8.984,13.551,8.984s.125-12.929-1.882-16.151a6.85,6.85,0,1,0-11.675,7.168Z" transform="translate(-611.124 -157.705)" fill="#6c63ff"/>
    <path id="Path_28" data-name="Path 28" d="M195.273,509.869s-19.574-24.256-18.344-48.6a47.248,47.248,0,0,0-7.809-28.839,79.415,79.415,0,0,0-9.2-11.242" transform="translate(-247.606 -233.129)" fill="none" stroke="#535461" stroke-miterlimit="10" stroke-width="2"/>
    <path id="Path_29" data-name="Path 29" d="M148.628,386.558c1.405,3.388-.647,15.749-.647,15.749s-10.2-7.277-11.6-10.665a6.636,6.636,0,0,1,12.261-5.079Z" transform="translate(-235.626 -213.84)" fill="#6c63ff"/>
    <path id="Path_30" data-name="Path 30" d="M183.981,411.851c-.663,3.6-9.109,12.853-9.109,12.853s-4.622-11.664-3.94-15.258a6.635,6.635,0,1,1,13.05,2.4Z" transform="translate(-253.056 -224.573)" fill="#6c63ff"/>
    <path id="Path_31" data-name="Path 31" d="M208.289,473.17c-2.394,2.78-14.359,6.5-14.359,6.5s1.907-12.382,4.3-15.162a6.635,6.635,0,0,1,10.038,8.663Z" transform="translate(-264.546 -253.661)" fill="#6c63ff"/>
    <path id="Path_32" data-name="Path 32" d="M217.982,526.822c-1.887,3.142-13.049,8.833-13.049,8.833s-.216-12.547,1.676-15.669a6.635,6.635,0,1,1,11.373,6.836Z" transform="translate(-270.023 -280.738)" fill="#6c63ff"/>
    <path id="Path_33" data-name="Path 33" d="M149.706,444.532c3.408,1.35,15.734-.893,15.734-.893s-7.428-10.088-10.831-11.443a6.64,6.64,0,0,0-4.9,12.337Z" transform="translate(-240.513 -238.408)" fill="#6c63ff"/>
    <path id="Path_34" data-name="Path 34" d="M158.211,505.846c3.654.271,14.746-5.556,14.746-5.556s-10.108-7.408-13.762-7.679a6.636,6.636,0,0,0-1,13.235Z" transform="translate(-243.689 -268.695)" fill="#6c63ff"/>
    <path id="Path_35" data-name="Path 35" d="M177.884,564.667c3.553.888,15.473-3.011,15.473-3.011s-8.713-8.979-12.266-9.852a6.636,6.636,0,0,0-3.207,12.879Z" transform="translate(-254.046 -298.09)" fill="#6c63ff"/>
    <path id="Path_36" data-name="Path 36" d="M1053.045,679s3.829,5.019-1.767,12.547-10.214,13.943-8.347,18.66c0,0,8.447-14.053,15.318-14.239S1060.608,687.442,1053.045,679Z" transform="translate(-687.231 -361.547)" fill="#6c63ff"/>
    <path id="Path_37" data-name="Path 37" d="M1053.259,679a6.228,6.228,0,0,1,.783,1.571c6.705,7.88,10.279,15.232,3.834,15.418-6.023.171-13.21,10.906-14.936,13.621a5.926,5.926,0,0,0,.206.617s8.447-14.053,15.318-14.239S1060.822,687.442,1053.259,679Z" transform="translate(-687.445 -361.547)" opacity="0.1"/>
    <path id="Path_38" data-name="Path 38" d="M1076.813,690.591c0,1.767-.2,3.192-.442,3.192s-.442-1.425-.442-3.192.246-.928.5-.928S1076.813,688.83,1076.813,690.591Z" transform="translate(-703.878 -366.759)" fill="#ffd037"/>
    <path id="Path_39" data-name="Path 39" d="M1079.554,694.71c-1.546.843-2.9,1.35-3.011,1.139s1.044-1.074,2.59-1.917.938-.231,1.054,0S1081.1,693.866,1079.554,694.71Z" transform="translate(-704.179 -368.769)" fill="#ffd037"/>
    <path id="Path_40" data-name="Path 40" d="M1014.671,679s-3.829,5.019,1.767,12.547,10.214,13.943,8.346,18.66c0,0-8.447-14.053-15.318-14.239S1007.108,687.442,1014.671,679Z" transform="translate(-669.084 -361.547)" fill="#6c63ff"/>
    <path id="Path_41" data-name="Path 41" d="M1014.671,679a6.027,6.027,0,0,0-.783,1.571c-6.71,7.88-10.279,15.232-3.834,15.418,6.023.171,13.21,10.906,14.936,13.621-.06.206-.126.412-.206.617,0,0-8.447-14.053-15.318-14.239S1007.108,687.442,1014.671,679Z" transform="translate(-669.084 -361.547)" opacity="0.1"/>
    <path id="Path_42" data-name="Path 42" d="M1009,690.591c0,1.767.2,3.192.442,3.192s.442-1.425.442-3.192-.246-.928-.5-.928S1009,688.83,1009,690.591Z" transform="translate(-670.539 -366.759)" fill="#ffd037"/>
    <path id="Path_43" data-name="Path 43" d="M1003.206,694.71c1.551.843,2.9,1.35,3.011,1.139s-1.044-1.074-2.59-1.917-.938-.231-1.054,0S1001.661,693.866,1003.206,694.71Z" transform="translate(-667.185 -368.769)" fill="#ffd037"/>
    <ellipse id="Ellipse_2" data-name="Ellipse 2" cx="40.041" cy="6.143" rx="40.041" ry="6.143" transform="translate(315.66 374.699)" fill="#6c63ff" opacity="0.1"/>
    <path id="Path_44" data-name="Path 44" d="M1043.492,725.449l-.191,1.561-.271,2.208-.11.923-.266,2.208-.12.923-.266,2.208-3.067,25.095c-.271,2.244-3.935,4.015-8.356,4.015h-15.92c-4.422,0-8.081-1.747-8.356-4.015l-3.067-25.095-.271-2.208-.11-.923-.271-2.208-.115-.923-.266-2.208-.2-1.561c-.151-1.27,1.832-2.339,4.331-2.339h32.563C1041.666,723.11,1043.648,724.179,1043.492,725.449Z" transform="translate(-667.184 -383.518)" fill="#65617d"/>
    <path id="Path_45" data-name="Path 45" d="M966.634,705.27l-.271,2.208h-40.3l-.266-2.208Z" transform="translate(-590.517 -361.779)" fill="#9d9cb5"/>
    <path id="Path_46" data-name="Path 46" d="M966.626,711.51l-.271,2.208H926.826l-.276-2.208Z" transform="translate(-590.89 -364.887)" fill="#9d9cb5"/>
    <path id="Path_47" data-name="Path 47" d="M966.623,717.75l-.266,2.2H927.591l-.271-2.2Z" transform="translate(-591.274 -367.995)" fill="#9d9cb5"/>
    <path id="Path_48" data-name="Path 48" d="M819.427,199.864h-.422a3.086,3.086,0,0,0,.949-2.173l-3.814-3.814,1.456-3.262h-4.9l.908-2.545h-2.906l-32.151,10.71a9,9,0,0,0,0,1.084h-20.7v93.276h89.919V199.864Z" transform="translate(-545.435 -117.01)" fill="url(#linear-gradient)"/>
    <rect id="Rectangle_1" data-name="Rectangle 1" width="88.564" height="91.967" transform="translate(213.073 83.18)" fill="#f6f7f9"/>
    <path id="Path_49" data-name="Path 49" d="M840.065,212.22c-4.2,6.178-32.221,14.314-32.221,14.314l.176-6.439h-5.184a2.936,2.936,0,0,0-1.435-3.222c-1.506-.828-1.651-3.513-1.631-4.653Z" transform="translate(-566.319 -129.04)" opacity="0.1"/>
    <path id="Path_50" data-name="Path 50" d="M831.458,189.025l-31.664,10.54s-.361,4.115,1.606,5.185a2.946,2.946,0,0,1,1.435,3.222h5.185l-.176,6.439s33.275-9.661,32.738-15.92l-3.754-3.759,1.43-3.222h-4.833l.9-2.509Z" transform="translate(-566.319 -117.474)" fill="#9d9cb5"/>
    <g id="Group_3" data-name="Group 3" transform="translate(229.445 112.993)" opacity="0.35">
      <rect id="Rectangle_2" data-name="Rectangle 2" width="55.82" height="1.566" fill="#6c63ff" opacity="0.2"/>
    </g>
    <g id="Group_4" data-name="Group 4" transform="translate(229.445 121.249)" opacity="0.35">
      <rect id="Rectangle_3" data-name="Rectangle 3" width="55.82" height="1.566" fill="#6c63ff" opacity="0.2"/>
    </g>
    <g id="Group_5" data-name="Group 5" transform="translate(229.445 129.5)" opacity="0.35">
      <rect id="Rectangle_4" data-name="Rectangle 4" width="55.82" height="1.566" fill="#6c63ff" opacity="0.2"/>
    </g>
    <g id="Group_6" data-name="Group 6" transform="translate(229.445 137.751)" opacity="0.35">
      <rect id="Rectangle_5" data-name="Rectangle 5" width="55.82" height="1.566" fill="#6c63ff" opacity="0.2"/>
    </g>
    <g id="Group_7" data-name="Group 7" transform="translate(229.445 146.002)" opacity="0.35">
      <rect id="Rectangle_6" data-name="Rectangle 6" width="55.82" height="1.566" fill="#6c63ff" opacity="0.2"/>
    </g>
    <g id="Group_8" data-name="Group 8" transform="translate(229.445 154.258)" opacity="0.35">
      <rect id="Rectangle_7" data-name="Rectangle 7" width="55.82" height="1.566" fill="#6c63ff" opacity="0.2"/>
    </g>
    <path id="Path_51" data-name="Path 51" d="M238.054,184.839h-.211c1.586-4.065,3.052-8.03,2.986-8.788-.141-1.506-3.157,1.767-3.3.949s0-3.92-1.37-3.92-2.2,1.611-3.011,1.611-4.121-.542-4.121-.542l-4.211,10.69H193.1v99.62h78.717v-99.62Z" transform="translate(-264.133 -109.544)" fill="url(#linear-gradient)"/>
    <rect id="Rectangle_8" data-name="Rectangle 8" width="76.935" height="98.401" transform="translate(-70.149 75.848)" fill="#f6f7f9"/>
    <path id="Path_52" data-name="Path 52" d="M266.331,197.61c-1.621,4.211-3.448,8.648-3.865,9.707-.808,2.008-1.34.939-2.284.673s-2.143.266-2.68,0a16.9,16.9,0,0,0-3.689,0,10.383,10.383,0,0,0,0-1.481c-.07-.532-3.694,0-3.694,0l3.453-8.9Z" transform="translate(-292.535 -121.762)" opacity="0.1"/>
    <path id="Path_53" data-name="Path 53" d="M257.5,175.534l-7.383,18.921s3.624-.537,3.689,0a9.6,9.6,0,0,1,0,1.476,16.634,16.634,0,0,1,3.694,0c.537.271,1.742-.271,2.68,0s1.476,1.34,2.284-.673,6.71-16.372,6.575-17.847-3.087,1.747-3.222.939,0-3.87-1.34-3.87-2.148,1.591-2.951,1.591S257.5,175.534,257.5,175.534Z" transform="translate(-292.535 -110.241)" fill="#9d9cb5"/>
    <g id="Group_9" data-name="Group 9" transform="translate(-59.59 101.966)" opacity="0.35">
      <rect id="Rectangle_9" data-name="Rectangle 9" width="55.82" height="1.566" fill="#6c63ff" opacity="0.2"/>
    </g>
    <g id="Group_10" data-name="Group 10" transform="translate(-59.59 107.873)" opacity="0.35">
      <rect id="Rectangle_10" data-name="Rectangle 10" width="55.82" height="1.566" fill="#6c63ff" opacity="0.2"/>
    </g>
    <g id="Group_11" data-name="Group 11" transform="translate(-59.59 113.776)" opacity="0.35">
      <rect id="Rectangle_11" data-name="Rectangle 11" width="55.82" height="1.566" fill="#6c63ff" opacity="0.2"/>
    </g>
    <g id="Group_12" data-name="Group 12" transform="translate(-59.59 119.683)" opacity="0.35">
      <rect id="Rectangle_12" data-name="Rectangle 12" width="55.82" height="1.566" fill="#6c63ff" opacity="0.2"/>
    </g>
    <g id="Group_13" data-name="Group 13" transform="translate(-59.59 125.585)" opacity="0.35">
      <rect id="Rectangle_13" data-name="Rectangle 13" width="55.82" height="1.566" fill="#6c63ff" opacity="0.2"/>
    </g>
    <g id="Group_14" data-name="Group 14" transform="translate(-59.59 131.487)" opacity="0.35">
      <rect id="Rectangle_14" data-name="Rectangle 14" width="55.82" height="1.566" fill="#6c63ff" opacity="0.2"/>
    </g>
    <path id="Path_54" data-name="Path 54" d="M806.477,475.6h-.211c1.947-5.019,3.744-9.922,3.659-10.841-.166-1.842-3.87,2.178-4.015,1.174s0-4.838-1.681-4.838-2.69,2.008-3.7,2.008-5.049-.673-5.049-.673l-5.19,13.17H751.42V598.513H847.9V475.6Z" transform="translate(-542.237 -253.009)" fill="url(#linear-gradient-3)"/>
    <rect id="Rectangle_15" data-name="Rectangle 15" width="94.797" height="121.257" transform="translate(209.956 223.449)" fill="#f6f7f9"/>
    <path id="Path_55" data-name="Path 55" d="M840.975,491.7c-1.977,5.149-4.2,10.54-4.713,11.835-1,2.479-1.651,1.154-2.811.828s-2.645.326-3.307,0-4.547,0-4.547,0a12.782,12.782,0,0,0,0-1.822c-.085-.657-4.547,0-4.547,0l4.231-10.841Z" transform="translate(-576.92 -268.251)" opacity="0.1"/>
    <path id="Path_56" data-name="Path 56" d="M830.144,464.49,821.05,487.8s4.462-.662,4.547,0a12.7,12.7,0,0,1,0,1.817s3.885-.326,4.547,0,2.148-.326,3.307,0,1.817,1.656,2.811-.823,8.266-20.176,8.1-21.993-3.8,2.148-3.97,1.159,0-4.773-1.651-4.773-2.645,1.962-3.639,1.962S830.144,464.49,830.144,464.49Z" transform="translate(-576.92 -254.05)" fill="#9d9cb5"/>
    <g id="Group_15" data-name="Group 15" transform="translate(229.445 257.332)" opacity="0.35">
      <rect id="Rectangle_16" data-name="Rectangle 16" width="55.82" height="3.98" fill="#6c63ff" opacity="0.2"/>
    </g>
    <g id="Group_16" data-name="Group 16" transform="translate(229.445 283.184)" opacity="0.35">
      <rect id="Rectangle_17" data-name="Rectangle 17" width="55.82" height="3.98" fill="#6c63ff" opacity="0.2"/>
    </g>
    <g id="Group_17" data-name="Group 17" transform="translate(229.445 309.041)" opacity="0.35">
      <rect id="Rectangle_18" data-name="Rectangle 18" width="55.82" height="3.98" fill="#6c63ff" opacity="0.2"/>
    </g>
    <path id="Path_57" data-name="Path 57" d="M174.122,458.031V443.19H153.289v14.841h-43.5V574.962H211.96V458.031Z" transform="translate(-184.055 -231.234)" fill="url(#linear-gradient-4)"/>
    <rect id="Rectangle_19" data-name="Rectangle 19" width="100.012" height="115.576" transform="translate(-73.186 227.389)" fill="#f6f7f9"/>
    <rect id="Rectangle_20" data-name="Rectangle 20" width="20.397" height="15.744" transform="translate(-30.605 227.389)" opacity="0.1"/>
    <rect id="Rectangle_21" data-name="Rectangle 21" width="20.397" height="29.878" transform="translate(-30.605 212.718)" fill="#9d9cb5"/>
    <g id="Group_18" data-name="Group 18" transform="translate(-51.093 255.344)" opacity="0.35">
      <rect id="Rectangle_22" data-name="Rectangle 22" width="55.82" height="3.98" fill="#6c63ff" opacity="0.2"/>
    </g>
    <g id="Group_19" data-name="Group 19" transform="translate(-51.093 263.259)" opacity="0.35">
      <rect id="Rectangle_23" data-name="Rectangle 23" width="55.82" height="3.98" fill="#6c63ff" opacity="0.2"/>
    </g>
    <g id="Group_20" data-name="Group 20" transform="translate(-51.093 271.179)" opacity="0.35">
      <rect id="Rectangle_24" data-name="Rectangle 24" width="55.82" height="3.98" fill="#6c63ff" opacity="0.2"/>
    </g>
    <g id="Group_21" data-name="Group 21" transform="translate(-51.093 279.094)" opacity="0.35">
      <rect id="Rectangle_25" data-name="Rectangle 25" width="55.82" height="3.98" fill="#6c63ff" opacity="0.2"/>
    </g>
    <g id="Group_22" data-name="Group 22" transform="translate(-10.209 287.907)" opacity="0.35">
      <rect id="Rectangle_26" data-name="Rectangle 26" width="14.941" height="12.076" fill="#6c63ff" opacity="0.2"/>
    </g>
    <g id="Group_23" data-name="Group 23" transform="translate(-51.093 302.843)" opacity="0.35">
      <rect id="Rectangle_27" data-name="Rectangle 27" width="14.941" height="12.076" fill="#6c63ff" opacity="0.2"/>
    </g>
    <path id="Path_58" data-name="Path 58" d="M535.159,484.385h-.141c1.626-6.359,2.851-11.423,2.851-11.423l-6.936,3.262s-4.924-6.525-6.745-5.435-5.822,3.8-5.822,3.8l-5.31-2.72-2.033,12.512H469.09V574.67l2.7,1.611c2.223-.8,5.882-2.153,5.882-2.153l-1.681,4.668,1.134.672,1.912-1.732.708,3.307,2.274,1.36,3.589-2.284-1,3.845,3.368,2.008,9.792-3.679-2.951,7.769,1.942,1.164,4.432-.778s-.2,1.551-.326,3.232l4.447,2.66c1.822-.708,3.538-1.405,3.538-1.405s-.176,1.7-.256,3.363l2.981,1.787c2.354-1.375,5.35-3.247,5.35-3.247l-2.509,4.668h56.663V484.385Z" transform="translate(-401.606 -257.774)" fill="url(#linear-gradient-4)"/>
    <path id="Path_59" data-name="Path 59" d="M570.807,499.55V615.126H515.232l2.479-4.6s-2.936,1.842-5.245,3.2l-2.921-1.767c.08-1.641.256-3.318.256-3.318s-1.686.688-3.473,1.385l-4.361-2.625c.125-1.656.316-3.187.316-3.187l-4.341.768-1.9-1.149,2.891-7.669-9.6,3.634-3.307-2.008.964-3.794-3.513,2.253-2.228-1.34-.693-3.262-1.877,1.717-1.114-.668,1.651-4.6s-3.589,1.335-5.772,2.123l-2.64-1.586V499.55Z" transform="translate(-402.458 -272.161)" fill="#f6f7f9"/>
    <g id="Group_24" data-name="Group 24" transform="translate(90.431 263.259)" opacity="0.35">
      <rect id="Rectangle_28" data-name="Rectangle 28" width="55.82" height="3.98" fill="#6c63ff" opacity="0.2"/>
    </g>
    <g id="Group_25" data-name="Group 25" transform="translate(90.431 275.159)" opacity="0.35">
      <rect id="Rectangle_29" data-name="Rectangle 29" width="55.82" height="3.98" fill="#6c63ff" opacity="0.2"/>
    </g>
    <g id="Group_26" data-name="Group 26" transform="translate(90.431 287.054)" opacity="0.35">
      <rect id="Rectangle_30" data-name="Rectangle 30" width="55.82" height="3.98" fill="#6c63ff" opacity="0.2"/>
    </g>
    <g id="Group_27" data-name="Group 27" transform="translate(90.431 298.953)" opacity="0.35">
      <rect id="Rectangle_31" data-name="Rectangle 31" width="11.182" height="3.98" fill="#6c63ff" opacity="0.2"/>
    </g>
    <path id="Path_60" data-name="Path 60" d="M572.688,499.545c-2.72,10.73-6.685,25.6-7.719,25.335-1.606-.437-4.115-3.513-4.115-3.513s-5.9,5.546-8.763,2.685-6.8-.9-6.8-.9L549.1,499.54Z" transform="translate(-439.562 -272.156)" opacity="0.1"/>
    <path id="Path_61" data-name="Path 61" d="M551.017,473.814l-5.727,35.424s3.935-1.967,6.8.9,8.768-2.7,8.768-2.7,2.509,3.072,4.115,3.513,10.379-36.066,10.379-36.066l-6.8,3.222s-4.828-6.444-6.62-5.37-5.707,3.759-5.707,3.759Z" transform="translate(-439.562 -258.747)" fill="#9d9cb5"/>
    <path id="Path_62" data-name="Path 62" d="M567.378,163.688v-3.4H514.118c-2.444,0-.949,3.4-.949,3.4H484.23v75.756H611.259V163.658Z" transform="translate(-409.147 -103.173)" fill="url(#linear-gradient-6)"/>
    <rect id="Rectangle_32" data-name="Rectangle 32" width="125.463" height="74.877" transform="translate(75.886 60.876)" fill="#f6f7f9"/>
    <path id="Path_63" data-name="Path 63" d="M596.128,179.991H546.345s-.537-5.772,1.21-6.841-4.969-4.833-4.969-4.833a5.571,5.571,0,0,1-.2-.537h53.738v1.747S602.973,175.564,596.128,179.991Z" transform="translate(-438.117 -106.904)" opacity="0.1"/>
    <path id="Path_64" data-name="Path 64" d="M543.276,161.1h52.6v4.562s6.846,6.023,0,10.464H546.1s-.537-5.772,1.21-6.841-4.969-4.833-4.969-4.833S540.861,161.1,543.276,161.1Z" transform="translate(-437.868 -103.576)" fill="#9d9cb5"/>
    <g id="Group_28" data-name="Group 28" transform="translate(91.299 84.36)" opacity="0.35">
      <rect id="Rectangle_33" data-name="Rectangle 33" width="94.647" height="1.566" fill="#6c63ff" opacity="0.2"/>
    </g>
    <g id="Group_29" data-name="Group 29" transform="translate(91.299 90.262)" opacity="0.35">
      <rect id="Rectangle_34" data-name="Rectangle 34" width="56.538" height="1.566" fill="#6c63ff" opacity="0.2"/>
    </g>
    <g id="Group_30" data-name="Group 30" transform="translate(91.299 96.169)" opacity="0.35">
      <rect id="Rectangle_35" data-name="Rectangle 35" width="94.647" height="1.566" fill="#6c63ff" opacity="0.2"/>
    </g>
    <g id="Group_31" data-name="Group 31" transform="translate(91.299 102.071)" opacity="0.35">
      <rect id="Rectangle_36" data-name="Rectangle 36" width="94.647" height="1.566" fill="#6c63ff" opacity="0.2"/>
    </g>
    <g id="Group_32" data-name="Group 32" transform="translate(91.299 107.974)" opacity="0.35">
      <rect id="Rectangle_37" data-name="Rectangle 37" width="94.647" height="1.566" fill="#6c63ff" opacity="0.2"/>
    </g>
    <path id="Path_65" data-name="Path 65" d="M626.1,530.48c-.9-3.824-1.45-7.177-1.45-7.177a14.793,14.793,0,0,0-1.661-7.282v-1.039h0V507.3a25.948,25.948,0,0,1,1.937-4.015c1.385-2.419,0-11.272,0-11.272s-5.129-12.482-3.88-20.4-10.54-35.158-10.54-35.158a34.574,34.574,0,0,1,1.109-7.784,6.171,6.171,0,0,0,.151-1.631V426.9c-.176-5.22-4.3-15.007-4.3-15.007l.552-18.655s2.635-11-1.661-25.762c-1.506-5.154-2.464-9.275-3.072-12.457q-.105-.542-.2-1.039c8.848-1.35,15.6-2.474,15.6-2.474s-5.134-21.481-8.6-25.235-6.239-15.559-6.239-15.559-1.807-15.162,1.109-19.574,3.323-12.08,3.323-12.08,6.655-4.828,7.488-6.976,2.218-6.976,2.218-9.536-.833-4.833-.552-6.173-1.942-6.439-.833-8.858a6.522,6.522,0,0,0,.442-2.329.3.3,0,0,0,0-.07v-.025a32.845,32.845,0,0,0-.587-6.3,17.74,17.74,0,0,0-6.58-3.513l-.146-.577-.376-1.506a7.08,7.08,0,0,0-.657-.391v-.547l-.06-2.178,1.044-4.9c2.043-8.532-9.325-9.792-9.325-9.792a5.948,5.948,0,0,0-3.217-2.841c-2.289-.808-.381,12.818.688,13.687.808.657,3.292,4.929,4.487,7.026h0l.2.346a4.706,4.706,0,0,0-.5.547l.432,2.956.065.452a12.289,12.289,0,0,0-1.812,3.1s2.083,2.279,1.666,4.828a14.757,14.757,0,0,0,.687,5.9c-.125-.141-1.586-1.726-3.046-1.34s-5.521,1.611-5.521,1.611-3.052.537-2.77,1.21-2.083,3.624-2.083,3.624l-8.2-7.769c-.08-.231-.161-.462-.236-.7a18.888,18.888,0,0,1-.713-3.4,18.688,18.688,0,0,0,2.62-.833,5.657,5.657,0,0,0,2.269-1.45,8.746,8.746,0,0,0,1.32-3.513c.647-2.389,2.043-4.517,3.041-6.781a22.084,22.084,0,0,0,1.636-12.181,8,8,0,0,0-1.26-3.563c-1.335-1.842-3.764-2.59-5.521-4.06s-2.9-3.709-4.959-4.813c-1.857-1-4.126-.878-6.219-.537a33.487,33.487,0,0,0-11.619,4.226c-1.195.708-2.51,1.506-3.885,1.275a5.156,5.156,0,0,1-2.8-2.053.99.99,0,0,1,.035-.115l-.09-.105a14.46,14.46,0,0,0-1.275,6.133,8.615,8.615,0,0,0,.04,1v.346a1.771,1.771,0,0,1,0,.281h0a1.574,1.574,0,0,1-.06.432,3.2,3.2,0,0,1-.768,1.109,6.055,6.055,0,0,0-.667.908c.035-.11.07-.221.11-.331a4.844,4.844,0,0,0-.848,2.58,2.579,2.579,0,0,0,.617,1.852,8.676,8.676,0,0,0,1.335,1.074,15.639,15.639,0,0,0,7.478,16.251c.1.231.186.467.281.7a20.03,20.03,0,0,1,1.506,8.939c-.03.221-.06.437-.1.652-.106.11-.206.226-.3.341h0s-13.551.13-16.718-2.755-8.03,7.027-8.03,7.027-4.853.944-5.822,0-6.655-.131-6.655-.131a12.225,12.225,0,0,0-8.457-3.087,25.048,25.048,0,0,0-6.208-3.453h0l-.156-.055h0a7.026,7.026,0,0,0-3.052-.386s-6.655-5.521-8.592-8.452-11.187-13.9-11.227-13.953l-.035-.5-.105-1.6a5.808,5.808,0,0,1-.828.07l-.186-.552a30.022,30.022,0,0,0-1.967-4.517s0-2.008.587-2.509-.241-7.885-.241-7.885-6-14.023-11.368-3.553c0,0-10.153,6.771-1.631,14.655,0,0,3.4,1.651,3.88,2.956.316.848,1.471,3.212,2.249,4.788.131.261.246.5.346.7l-.1.08.125,1.315.05.5c-1.606.913-2.7,1.812-2.429,2.509a14.883,14.883,0,0,1,.969,3.624s11.784,14.761,13.31,21.08c0,0,31.619,18.786,42.008,20.131l-1.8,9.39a75.36,75.36,0,0,0-.417,7.649c.141,2.013-1.25,11.142-1.25,11.142s-1.8,13.416-3.328,15.293-1.245,9.932-1.245,9.932a67.781,67.781,0,0,1-2.083,11.408c-1.506,5.1-.412,11.4-.412,11.4s-5.27,12.081,7.348,3.895c0,0,6.193-.386,13.325-.627v.708c0,.918-.03,1.912-.04,2.961-.1,6.916-.136,16.447.176,23.659.552,12.748,4.437,37.978,4.437,37.978V435.9a17.113,17.113,0,0,0-.366,3.624,23.589,23.589,0,0,0,3.418,12.688l.858,8.367s2.279,5.571,2.324,8.9a4.856,4.856,0,0,1-.1.808,5.828,5.828,0,0,0-.11,1.295c-.131,3.839,2.183,13.019,2.183,13.019s.141,9.26,1.506,9.8c1.185.457-1.581,5.335-2.409,6.735a1.661,1.661,0,0,0-.05-.266c-.105.181-.171.281-.171.281a6.57,6.57,0,0,0-.432,2.339,3.368,3.368,0,0,0,1.536,3.257c2.635,1.611,4.05,2.951,1.817,3.513a24.346,24.346,0,0,0-2.444.5c-.04-.105-.08-.211-.115-.311a1.506,1.506,0,0,0-.914,1.621,6.859,6.859,0,0,0,.828,3.142,33.678,33.678,0,0,0,3.754,6.846l1.064-.12a5.8,5.8,0,0,1-.617,1.144,4.442,4.442,0,0,1-1.571,1.39,4.73,4.73,0,0,1-1.892.647,5.365,5.365,0,0,0-3.93,1.912c-1.38,1.787-2.248,4.226.5,6.364l9.917,3.423s17.064,2.213,16.146-1.611-1.45-7.177-1.45-7.177a15.154,15.154,0,0,0-1.385-6.786,8.091,8.091,0,0,0-.6-1l.6-.07s1.245-8.452,2.911-10.038c.381-.371.467-.658.376-.873.176-.462-.261-.733-.818-.883l-.12.331a8.1,8.1,0,0,0-1.656-.186s-.557-4.427,1.245-6.023a1.686,1.686,0,0,0,.351-1.315,7.1,7.1,0,0,0-.186-1.8c0,.03-.04.07-.065.1a65.376,65.376,0,0,0-3.98-10.4s-.141-4.015.969-5.631-.135-21.877-.135-21.877.417-9.792-.833-14.354,1.506-9.932,1.506-9.932a2.023,2.023,0,0,0-.03-.291l.035-.07s-.06-.6-.161-1.541a.651.651,0,0,0-.035.09c-.276-2.59-.808-7.287-1.195-9.461-.557-3.087.136-17.847.136-17.847l2.509-6.3L580,412.726l4.718,14.495s2.334,3.062,2.389,6.163a2.282,2.282,0,0,1-.03.452,8.141,8.141,0,0,0-.055.969,8.613,8.613,0,0,0,1.435,5.164s1.25,6.841,3.192,8.587,1.937,5.1,1.937,5.1,2.359,9.927,3.468,11.674c.934,1.471,1,5.521.974,6.75h0v.361s.326,3.548.316,6.525a10.377,10.377,0,0,1-.035,1.059v-.075a10.7,10.7,0,0,1-.286,2.414,1.094,1.094,0,0,0-.04.136,2.116,2.116,0,0,1,.04-.5,25.455,25.455,0,0,0-.693,6.188c-.065,3.569.5,7.8,2.64,10.279,3.744,4.3,6.1,3.759,6.1,3.759s-1.807,5.365-4.015,6.439a1.447,1.447,0,0,0-.236.151,2.245,2.245,0,0,0-.055-.311,2.606,2.606,0,0,0-.647,2.008c-.161,2.359,1.325,6.193,2.745,7.955a4.441,4.441,0,0,0,1.872,1.094,4.109,4.109,0,0,1-.351.216,6.649,6.649,0,0,1-.763.356,3.654,3.654,0,0,1-1.129.3,5.311,5.311,0,0,0-3.94,1.887c-1.38,1.782-2.249,4.221.5,6.359l9.917,3.423S627,534.3,626.1,530.48Z" transform="translate(-401.218 -124.056)" fill="url(#linear-gradient-7)"/>
    <path id="Path_66" data-name="Path 66" d="M641.686,850.224l-9.6-3.423c-2.65-2.138-1.807-4.577-.467-6.364a5.124,5.124,0,0,1,3.8-1.912,4.488,4.488,0,0,0,1.832-.647,4.351,4.351,0,0,0,1.506-1.39,7.076,7.076,0,0,0,1.094-3.709s10.54-3.087,13.421,0a7.724,7.724,0,0,1,1.275,1.872,15.975,15.975,0,0,1,1.345,6.786s.537,3.348,1.405,7.177S641.686,850.224,641.686,850.224Z" transform="translate(-481.934 -437.462)" fill="#2d293d"/>
    <path id="Path_67" data-name="Path 67" d="M735.26,840.8l-9.6-3.423c-2.645-2.138-1.8-4.577-.467-6.359a5.1,5.1,0,0,1,3.8-1.912,3.441,3.441,0,0,0,1.1-.3,6.419,6.419,0,0,0,.738-.356c2.685-1.476,2.615-5.1,2.615-5.1s10.54-3.087,13.421,0a7.481,7.481,0,0,1,1,1.37,15.222,15.222,0,0,1,1.606,7.287s.537,3.353,1.41,7.177S735.26,840.8,735.26,840.8Z" transform="translate(-528.546 -432.77)" fill="#2d293d"/>
    <path id="Path_68" data-name="Path 68" d="M661.645,832.779a7.726,7.726,0,0,1,1.275,1.872h0l-15.79,1.832a7.076,7.076,0,0,0,1.094-3.709S658.764,829.7,661.645,832.779Z" transform="translate(-490.289 -437.463)" opacity="0.1"/>
    <path id="Path_69" data-name="Path 69" d="M753.992,824.729v2.956c-2.454,4.045-14.334,3.162-17.782,1.129a6.455,6.455,0,0,0,.738-.356c2.685-1.476,2.615-5.1,2.615-5.1s10.54-3.087,13.421,0A7.472,7.472,0,0,1,753.992,824.729Z" transform="translate(-534.661 -432.77)" opacity="0.1"/>
    <path id="Path_70" data-name="Path 70" d="M695.771,646.391a26.618,26.618,0,0,0-1.877,4.015v10.61c-2.685,4.427-16.643,2.951-18.52.537s-3.89-8.723-1.747-9.8,3.885-6.439,3.885-6.439-2.284.537-5.907-3.759-2.55-13.822-1.872-16.1,0-9.932,0-9.932.136-5.365-.939-7.112-3.328-11.674-3.328-11.674,0-3.353-1.882-5.1-3.087-8.587-3.087-8.587a8.813,8.813,0,0,1-1.34-5.767c.4-3.358-2.284-6.981-2.284-6.981l-4.562-14.49-4.291-10.871-2.414,6.309s-.673,14.761-.136,17.847,1.34,11.273,1.34,11.273-2.68,5.365-1.476,9.927.808,14.359.808,14.359,1.2,20.261.13,21.872-.938,5.636-.938,5.636,5.521,11.8,3.759,13.415-1.21,6.023-1.21,6.023,3.759,0,2.148,1.611-2.821,10.038-2.821,10.038l-16.221,1.882a32.749,32.749,0,0,1-3.634-6.846c-2.128-4.964.4-4.427,2.56-4.964s.793-1.877-1.757-3.513-1.074-5.235-1.074-5.235,3.89-6.575,2.55-7.112-1.476-9.8-1.476-9.8-2.685-11-2.008-13.953S623.98,603.7,623.98,603.7l-.938-8.457a23.222,23.222,0,0,1-2.951-15.965v-13s-3.759-25.225-4.3-37.973c-.341-8.166-.246-19.308-.135-26.259.065-3.9.135-6.484.135-6.484l57.968-6.023a47.644,47.644,0,0,0,1.054,8.612c.587,3.182,1.506,7.3,2.971,12.457,4.161,14.761,1.611,25.762,1.611,25.762l-.537,18.645s5.1,12.482,4.015,16.773a35.686,35.686,0,0,0-1.074,7.784s11.418,27.233,10.208,35.168,3.759,20.4,3.759,20.4S697.111,643.972,695.771,646.391Z" transform="translate(-474.562 -267.175)" fill="#575988"/>
    <path id="Path_71" data-name="Path 71" d="M709.34,660.429l17.646-2.349S716.989,668.279,709.34,660.429Z" transform="translate(-521.276 -351.126)" opacity="0.05"/>
    <path id="Path_72" data-name="Path 72" d="M736.222,623.73s.6,6.239-3.222,8.587C733,632.317,739.846,631.243,736.222,623.73Z" transform="translate(-533.062 -334.016)" opacity="0.1"/>
    <path id="Path_73" data-name="Path 73" d="M716.559,584.16S701.809,596.3,696.443,595.3,716.559,584.16,716.559,584.16Z" transform="translate(-514.483 -314.306)" opacity="0.1"/>
    <path id="Path_74" data-name="Path 74" d="M654.3,674.13s-11.2,2.545-11.543,7.027S654.3,674.13,654.3,674.13Z" transform="translate(-488.105 -359.121)" opacity="0.1"/>
    <path id="Path_75" data-name="Path 75" d="M658.62,785.61s-15.835,2.956-11.338,4.969a76.455,76.455,0,0,0,11.875,3.619S664.256,794.468,658.62,785.61Z" transform="translate(-489.964 -414.65)" opacity="0.05"/>
    <g id="Group_33" data-name="Group 33" transform="translate(140.97 227.981)" opacity="0.05">
      <path id="Path_76" data-name="Path 76" d="M639.689,799.594a3.122,3.122,0,0,1-1.45-2.294l-.161.281s-1.476,3.624,1.074,5.235l.828.542c.467-.085.974-.151,1.465-.276C643.6,802.545,642.239,801.2,639.689,799.594Z" transform="translate(-626.538 -648.454)"/>
      <path id="Path_77" data-name="Path 77" d="M681.608,797c.432-.4.417-1.43.151-2.755a7.468,7.468,0,0,0-.9,3.885,3.2,3.2,0,0,1,.748-1.129Z" transform="translate(-648.06 -646.93)"/>
      <path id="Path_78" data-name="Path 78" d="M676.429,666.72a17.991,17.991,0,0,0-1.069,4.934,19.4,19.4,0,0,1,1.225-3.388S676.524,667.658,676.429,666.72Z" transform="translate(-645.32 -583.411)"/>
      <path id="Path_79" data-name="Path 79" d="M749.431,651.226a5.865,5.865,0,0,0,.146-1.466c-.2,1-.336,1.932-.437,2.745C749.225,652.089,749.321,651.662,749.431,651.226Z" transform="translate(-682.071 -574.963)"/>
      <path id="Path_80" data-name="Path 80" d="M676.361,758.811a8.645,8.645,0,0,0,.4-2.981,10.483,10.483,0,0,0-.773,3.764A3.659,3.659,0,0,1,676.361,758.811Z" transform="translate(-645.634 -627.798)"/>
      <path id="Path_81" data-name="Path 81" d="M660.473,812.19a52.565,52.565,0,0,0-1.852,8.241l-16.226,1.877a32.585,32.585,0,0,1-3.634-6.841c-.186-.437-.336-.828-.457-1.184-.974.447-1.355,1.455-.08,4.4a34.044,34.044,0,0,0,3.634,6.846l16.226-1.892s1.21-8.452,2.821-10.038C661.7,812.8,661.191,812.391,660.473,812.19Z" transform="translate(-626.418 -655.871)"/>
      <path id="Path_82" data-name="Path 82" d="M628.121,632.948s.135,9.26,1.476,9.8h0c.677-1.531,1.129-3.011.5-3.227-1.34-.532-1.476-9.792-1.476-9.792s-2.685-11.006-2.008-13.958-2.148-10.063-2.148-10.063l-.939-8.452a23.237,23.237,0,0,1-2.951-15.97V568.275s-3.759-25.23-4.3-37.978c-.341-8.161-.246-19.3-.136-26.254,0-1.26.045-2.374.065-3.312l-.467.045s-.07,2.585-.135,6.484c-.11,6.951-.206,18.068.135,26.259.537,12.748,4.3,37.973,4.3,37.973v13.019a23.223,23.223,0,0,0,2.951,15.965l.938,8.457s2.816,7.112,2.148,10.038S628.121,632.948,628.121,632.948Z" transform="translate(-615.507 -500.73)"/>
      <path id="Path_83" data-name="Path 83" d="M732.638,818.8a15.639,15.639,0,0,1-2.57-6.374c-1.656,1.506.246,7.3,2.008,9.6,1.877,2.414,15.835,3.89,18.52-.537v-2.555C746.992,822.533,734.415,821.088,732.638,818.8Z" transform="translate(-672.254 -655.99)"/>
      <path id="Path_84" data-name="Path 84" d="M774.592,794.805a26.389,26.389,0,0,0-1.882,4.015V800.7c.306-.688.743-1.606,1.345-2.685a8.148,8.148,0,0,0,.587-3.328C774.622,794.735,774.607,794.775,774.592,794.805Z" transform="translate(-693.811 -647.154)"/>
      <path id="Path_85" data-name="Path 85" d="M729.837,779.455a25.477,25.477,0,0,0,1.325-3.187s-2.284.537-5.907-3.754c-2.635-3.127-2.786-9.034-2.409-12.884-.678,2.284-1.747,11.81,1.872,16.1C727.1,778.541,728.878,779.279,729.837,779.455Z" transform="translate(-668.63 -629.69)"/>
      <path id="Path_86" data-name="Path 86" d="M699.984,666.6a71.487,71.487,0,0,1,.266,7.955,11.462,11.462,0,0,1,.276-1.245c.677-2.279,0-9.927,0-9.927s.135-5.37-.939-7.112S696.21,644.6,696.21,644.6s0-3.358-1.877-5.1-3.087-8.587-3.087-8.587a8.834,8.834,0,0,1-1.34-5.772c.4-3.353-2.284-6.976-2.284-6.976l-4.562-14.495L678.769,592.8l-2.419,6.3s-.035.793-.08,2.038l1.962-5.124,4.291,10.871,4.562,14.49s2.685,3.624,2.284,6.981a8.813,8.813,0,0,0,1.34,5.767s1.209,6.846,3.087,8.587,1.912,5.1,1.912,5.1,2.284,9.932,3.358,11.674S699.984,666.6,699.984,666.6Z" transform="translate(-645.773 -546.591)"/>
    </g>
    <path id="Path_87" data-name="Path 87" d="M732.894,235.428l-1,4.9.06,2.178.04,1.611-5.621.552-.627-1.159h0c-1.159-2.1-3.563-6.369-4.346-7.026-1.034-.873-2.881-14.495-.662-13.687a5.867,5.867,0,0,1,3.117,2.821S734.861,226.9,732.894,235.428Z" transform="translate(-526.431 -134.29)" fill="#ffcdd3"/>
    <path id="Path_88" data-name="Path 88" d="M737.978,263l-5.6.577-.627-1.159h0a4.924,4.924,0,0,1,6.183-1Z" transform="translate(-532.439 -153.198)" opacity="0.1"/>
    <path id="Path_89" data-name="Path 89" d="M739.1,266.187l-7.393,1.737-.156-1.1-.417-2.956a5.081,5.081,0,0,1,7.147-.979l.366,1.506Z" transform="translate(-532.13 -153.737)" fill="#dce6f2"/>
    <path id="Path_90" data-name="Path 90" d="M491,225.628l-7.87,4.236s-.3-.622-.713-1.506c-.753-1.571-1.867-3.94-2.173-4.788-.467-1.3-3.759-2.951-3.759-2.951-8.246-7.885,1.581-14.66,1.581-14.66,5.2-10.464,11,3.553,11,3.553s.8,7.388.236,7.885-.567,2.509-.567,2.509a30.462,30.462,0,0,1,1.9,4.517C490.873,225.177,491,225.628,491,225.628Z" transform="translate(-403.65 -123.989)" fill="#ffcdd3"/>
    <path id="Path_91" data-name="Path 91" d="M500.162,247.755l-7.87,4.236s-.3-.622-.713-1.506c1.109-.929,5.054-4.126,6.349-3.98a9.437,9.437,0,0,0,1.867.045C500.032,247.3,500.162,247.755,500.162,247.755Z" transform="translate(-412.808 -146.115)" opacity="0.1"/>
    <path id="Path_92" data-name="Path 92" d="M501.18,250.677l-8.858,4.366-.176-1.907L492,251.8s5.129-4.4,6.645-4.226a7.936,7.936,0,0,0,2.314,0l.1,1.6Z" transform="translate(-413.017 -146.648)" fill="#dce6f2"/>
    <path id="Path_93" data-name="Path 93" d="M671.136,283.051s-38.615,4.356-31.4,2.008c5.019-1.636,7.026-4.833,7.438-8.377a20.168,20.168,0,0,0-1.435-8.934,38.434,38.434,0,0,0-3.453-6.976s29.521-16.241,23.589-1.506a23.693,23.693,0,0,0-1.671,7,19.66,19.66,0,0,0,.758,7.082A21.08,21.08,0,0,0,671.136,283.051Z" transform="translate(-486.159 -149.395)" fill="#ffcdd3"/>
    <path id="Path_94" data-name="Path 94" d="M669.324,259.309a23.7,23.7,0,0,0-1.671,7c-2.78,2.334-5.832,2.183-9.747,2.183-3.011,0-6.339.728-8.743-.723a38.437,38.437,0,0,0-3.453-6.976S675.231,244.549,669.324,259.309Z" transform="translate(-489.582 -149.409)" opacity="0.1"/>
    <circle id="Ellipse_3" data-name="Ellipse 3" cx="15.97" cy="15.97" r="15.97" transform="translate(151.832 88.164)" fill="#ffcdd3"/>
    <path id="Path_95" data-name="Path 95" d="M671.136,301.52s-38.615,4.356-31.4,2.008c5.019-1.636,7.026-4.833,7.438-8.377,1.922-2.078,5.787-3.584,8.266-4.382a11.579,11.579,0,0,1,7.026-.115,9.651,9.651,0,0,1,2.545,1.184A21.079,21.079,0,0,0,671.136,301.52Z" transform="translate(-486.159 -167.864)" opacity="0.1"/>
    <path id="Path_96" data-name="Path 96" d="M739.508,268.533l-7.393,1.737-.156-1.1a6.526,6.526,0,0,1,7.1-2.424Z" transform="translate(-532.544 -156.082)" opacity="0.1"/>
    <path id="Path_97" data-name="Path 97" d="M501.324,252.276l-8.858,4.366-.176-1.907a65.1,65.1,0,0,1,8.934-3.955Z" transform="translate(-413.162 -148.247)" opacity="0.1"/>
    <path id="Path_98" data-name="Path 98" d="M674.918,498.132c-14.956,2.359-36.242,5.436-39.619,4.407-2.8-.853-11.749-.763-19.539-.5.065-3.9.136-6.484.136-6.484l57.968-6.023A47.591,47.591,0,0,0,674.918,498.132Z" transform="translate(-474.663 -267.17)" opacity="0.1"/>
    <path id="Path_99" data-name="Path 99" d="M626.013,376.229s-49.246,8.457-54.536,6.846-32.417.136-32.417.136c-12.211,8.181-7.112-3.895-7.112-3.895s-1.074-6.3.4-11.4a69.767,69.767,0,0,0,2.008-11.408s-.266-8.03,1.21-9.927,3.217-15.3,3.217-15.3,1.345-9.124,1.21-11.137.4-7.649.4-7.649l1.752-9.375c-10.038-1.34-40.653-20.126-40.653-20.126-1.476-6.309-12.884-21.079-12.884-21.079a15.562,15.562,0,0,0-.939-3.624c-.808-2.148,11.272-6.439,11.272-6.439s8.989,11,10.866,13.953,8.321,8.457,8.321,8.457a6.453,6.453,0,0,1,2.951.386.608.608,0,0,1,.156.045h0a24.4,24.4,0,0,1,6.023,3.448,11.659,11.659,0,0,1,8.186,3.087s5.521-.8,6.439.135,5.636,0,5.636,0,4.7-9.932,7.784-7.026,16.181,2.75,16.181,2.75c1.747-2.319,5.993-3.98,8.648-4.838a11.579,11.579,0,0,1,7.026-.115,8.908,8.908,0,0,1,2.76,1.335l7.945,7.779s2.284-2.951,2.008-3.624,2.685-1.2,2.685-1.2,3.89-1.21,5.365-1.611,2.831,1.195,2.951,1.335a15.611,15.611,0,0,1-.668-5.9c.392-2.479-1.611-4.833-1.611-4.833,4.7-11.544,15.3-1.877,15.3-1.877s1.21,6.309.136,8.723,1.074,7.528.8,8.853.537,3.624.537,6.173-1.34,7.383-2.148,9.536-7.272,6.951-7.272,6.951-.407,7.649-3.222,12.075-1.074,19.574-1.074,19.574,2.685,11.809,6.023,15.559S626.013,376.229,626.013,376.229Z" transform="translate(-410.842 -148.78)" fill="#656691"/>
    <path id="Path_100" data-name="Path 100" d="M613.65,315.586s-1.476-4.427-2.816-4.833a31.29,31.29,0,0,1-3.895-1.742l.863-1.651s5.044,1.38,5.847,2.856S613.65,315.586,613.65,315.586Z" transform="translate(-470.27 -176.43)" opacity="0.1"/>
    <path id="Path_101" data-name="Path 101" d="M554.451,300.753c-.266,1.345-12.211,2.55-12.211,2.55l6.023-6.053h0l.151.05h0A23.875,23.875,0,0,1,554.451,300.753Z" transform="translate(-438.042 -171.394)" opacity="0.1"/>
    <circle id="Ellipse_4" data-name="Ellipse 4" cx="1.074" cy="1.074" r="1.074" transform="translate(80.779 109.866)" fill="#575988"/>
    <circle id="Ellipse_5" data-name="Ellipse 5" cx="1.074" cy="1.074" r="1.074" transform="translate(82.155 112.014)" fill="#575988"/>
    <circle id="Ellipse_6" data-name="Ellipse 6" cx="1.074" cy="1.074" r="1.074" transform="translate(83.5 113.996)" fill="#575988"/>
    <circle id="Ellipse_7" data-name="Ellipse 7" cx="1.074" cy="1.074" r="1.074" transform="translate(84.905 116.139)" fill="#575988"/>
    <circle id="Ellipse_8" data-name="Ellipse 8" cx="0.873" cy="0.873" r="0.873" transform="translate(211.592 116.225)" fill="#575988"/>
    <circle id="Ellipse_9" data-name="Ellipse 9" cx="0.873" cy="0.873" r="0.873" transform="translate(211.728 118.202)" fill="#575988"/>
    <circle id="Ellipse_10" data-name="Ellipse 10" cx="0.873" cy="0.873" r="0.873" transform="translate(211.848 120.185)" fill="#575988"/>
    <path id="Path_102" data-name="Path 102" d="M620.44,396.2c-.12-.156,30.113,38.043,53.607,15.97C674.047,412.16,636.947,417.2,620.44,396.2Z" transform="translate(-476.994 -220.681)" opacity="0.1"/>
    <path id="Path_103" data-name="Path 103" d="M585.82,435.77s18.1.5,20,5.7v5.415a3.448,3.448,0,0,1-3.368,0c-1.827-1-12.768-6.525-16.628-3.87Z" transform="translate(-459.75 -240.392)" opacity="0.1"/>
    <path id="Path_104" data-name="Path 104" d="M586.49,435.77s17.31.472,19.122,5.436v5.164a3.3,3.3,0,0,1-3.222,0c-1.742-.939-12.211-6.239-15.9-3.689Z" transform="translate(-460.084 -240.392)" fill="#656691"/>
    <path id="Path_105" data-name="Path 105" d="M605.51,357.46a58.238,58.238,0,0,0,7.026,12.045,47.251,47.251,0,0,0,10.986,10.61S605.811,359.949,605.51,357.46Z" transform="translate(-469.558 -201.385)" opacity="0.1"/>
    <path id="Path_106" data-name="Path 106" d="M593.71,315.55s3.011,13.049,10.8,17.466Z" transform="translate(-463.68 -180.509)" opacity="0.1"/>
    <path id="Path_107" data-name="Path 107" d="M584.213,318.176c-.075-.241-2.68,10.309,10.038,16.146C594.246,334.322,588.846,332.49,584.213,318.176Z" transform="translate(-458.816 -181.815)" opacity="0.1"/>
    <path id="Path_108" data-name="Path 108" d="M742,300.752c-.2,0,6.274,4.121,8.03,6.023C750.026,306.789,745.8,300.481,742,300.752Z" transform="translate(-537.54 -173.134)" opacity="0.1"/>
    <path id="Path_109" data-name="Path 109" d="M647.163,247.068a3.335,3.335,0,0,0,1.245,2.158,3.408,3.408,0,0,0,1.506.336c4.868.3,9.932.5,14.439-1.36a5.451,5.451,0,0,0,2.193-1.455,8.963,8.963,0,0,0,1.275-3.513c.632-2.384,1.977-4.517,2.951-6.781a22.781,22.781,0,0,0,1.581-12.176,8.245,8.245,0,0,0-1.22-3.568c-1.295-1.842-3.644-2.59-5.355-4.055s-2.806-3.709-4.8-4.813c-1.8-1-4.015-.878-6.023-.537a31.75,31.75,0,0,0-11.242,4.221c-1.154.713-2.424,1.531-3.759,1.28a5.168,5.168,0,0,1-2.76-2.118,14.841,14.841,0,0,0-1.2,6.956,2.944,2.944,0,0,1-.035,1.049,3.111,3.111,0,0,1-.743,1.1c-1.2,1.4-1.952,3.6-.763,5.019.5.612,1.31.949,1.812,1.571.9,1.124.6,2.735.577,4.171a2.123,2.123,0,0,0,.351,1.415,2.072,2.072,0,0,0,1.972.472,5.457,5.457,0,0,1,2.1-.2,3.513,3.513,0,0,1,1.827,1.405C645.341,240.484,646.22,243.651,647.163,247.068Z" transform="translate(-483.677 -128.46)" fill="#2d293d"/>
    <g id="Group_34" data-name="Group 34" transform="translate(150.179 86.051)" opacity="0.1">
      <path id="Path_110" data-name="Path 110" d="M667.083,258.715a5.451,5.451,0,0,1-2.193,1.455c-4.517,1.877-9.571,1.661-14.439,1.355a3.338,3.338,0,0,1-1.506-.331,3.433,3.433,0,0,1-1.245-2.158c-.944-3.443-1.822-6.585-4.07-9.446a3.513,3.513,0,0,0-1.827-1.405,5.458,5.458,0,0,0-2.1.2,2.081,2.081,0,0,1-1.972-.472,2.124,2.124,0,0,1-.351-1.415c0-1.435.321-3.052-.577-4.171-.5-.627-1.295-.959-1.817-1.571a3.16,3.16,0,0,1-.306-3.207c-.853,1.355-1.225,3.1-.226,4.276.5.617,1.31.949,1.812,1.576.9,1.119.6,2.735.577,4.171a2.123,2.123,0,0,0,.351,1.415,2.072,2.072,0,0,0,1.972.472,5.457,5.457,0,0,1,2.1-.2,3.513,3.513,0,0,1,1.827,1.405c2.249,2.861,3.127,6.023,4.07,9.446a2.511,2.511,0,0,0,2.75,2.489c4.868.306,9.932.5,14.439-1.355a5.45,5.45,0,0,0,2.193-1.455,4.245,4.245,0,0,0,.693-1.295C667.189,258.569,667.138,258.644,667.083,258.715Z" transform="translate(-633.856 -227.708)"/>
      <path id="Path_111" data-name="Path 111" d="M638.114,225.679a2.28,2.28,0,0,0,.5-.808,2.946,2.946,0,0,0,.035-1.049,14.935,14.935,0,0,1,.748-5.777l-.085-.105a14.832,14.832,0,0,0-1.2,6.956A4.077,4.077,0,0,1,638.114,225.679Z" transform="translate(-635.959 -217.94)"/>
    </g>
    <path id="Path_112" data-name="Path 112" d="M654.69,301.741s19.95,2.645,21.742-.351" transform="translate(-494.055 -173.456)" opacity="0.1"/>
    <path id="Path_113" data-name="Path 113" d="M732,285.65s11.082,0,13.521,4.166" transform="translate(-532.563 -165.616)" opacity="0.1"/>
  </g>
</svg>
